<svg xmlns="http://www.w3.org/2000/svg" width="1920.591" height="530.154" viewBox="0 0 1920.591 530.154">
  <defs>
    <style>
      .cls-1 {
        fill: #f18c2f;
      }
    </style>
  </defs>
  <g id="Background" transform="translate(0 -552.046)">
    <path id="Waveform_shape" data-name="Waveform shape" class="cls-1" d="M1920.591,530.153h0L0,529.554v-273.6a215.341,215.341,0,0,0,13.8,19.49c5.3,6.789,11.035,13.51,17.032,19.977a312.1,312.1,0,0,0,23.585,22.9A266.117,266.117,0,0,0,120.655,361.2,226.721,226.721,0,0,0,163,375.327a219,219,0,0,0,23.417,3.959,221.659,221.659,0,0,0,24.888,1.4,231.078,231.078,0,0,0,23.086-1.171c7.98-.8,16.12-2.043,24.194-3.68,8.344-1.692,16.853-3.858,25.292-6.437,8.707-2.662,17.582-5.84,26.379-9.444,74.943-30.709,126.132-64.7,167.263-92.01,23.646-15.7,44.066-29.26,63.974-38.91a163.614,163.614,0,0,1,29.795-11.307,120.146,120.146,0,0,1,30.989-4.07,127.193,127.193,0,0,1,14.8.883,146.748,146.748,0,0,1,15.62,2.729c5.373,1.233,10.964,2.814,16.618,4.7,5.726,1.907,11.714,4.191,17.8,6.788a160.3,160.3,0,0,1,17.065,8.594c5.515,3.182,11.254,6.876,17.058,10.98A362.089,362.089,0,0,1,735.3,276.043c22.672,20.565,45.558,45.005,67.691,68.641l.009.01c13.677,14.606,27.82,29.71,41.621,43.572a530.245,530.245,0,0,0,41.125,37.786c7.021,5.691,13.865,10.752,20.339,15.041a169.442,169.442,0,0,0,20.171,11.577,110.959,110.959,0,0,0,19.988,7.44,79.225,79.225,0,0,0,19.79,2.629,68.355,68.355,0,0,0,17.556-2.281,74.009,74.009,0,0,0,17.372-7.167,97.95,97.95,0,0,0,17.18-12.539,146.988,146.988,0,0,0,16.981-18.4c46.085-58.669,81.922-102.464,123.54-131.785a230.3,230.3,0,0,1,32.553-19.267c5.7-2.759,11.6-5.308,17.537-7.575,6.018-2.3,12.283-4.383,18.622-6.2,25.89-7.424,55.007-11.032,89.016-11.032,31.587,0,67.777,3.095,110.638,9.46a274.187,274.187,0,0,0,40.064,3.1c104.6,0,154.319-69.071,202.4-135.867l.007-.01c9.287-12.9,18.891-26.242,28.644-38.675,5.247-6.688,10.134-12.61,14.941-18.1,5.389-6.159,10.544-11.631,15.759-16.728a191.353,191.353,0,0,1,35.2-27.683,150.913,150.913,0,0,1,20.051-10.13A144.756,144.756,0,0,1,1806.2,4.754,164.562,164.562,0,0,1,1843.473,0a107.477,107.477,0,0,1,15.807,1.124,85.421,85.421,0,0,1,13.776,3.208,70.178,70.178,0,0,1,22,11.693,72.6,72.6,0,0,1,15.487,17.1,95.961,95.961,0,0,1,10.051,20.561V530.152Z" transform="translate(0 552.046)"/>
  </g>
</svg>
